<svg width="32" height="32" viewBox="0 0 32 32" fill="none" xmlns="http://www.w3.org/2000/svg">
<rect width="32" height="32" rx="5" fill="url(#paint0_linear_90_57)"/>
<g clip-path="url(#clip0_90_57)">
<path d="M16.3333 4.66675C15.2867 4.66675 14.2921 4.89625 13.3984 5.30823C13.1051 5.44344 12.977 5.79083 13.1122 6.08413C13.2474 6.37744 13.5948 6.5056 13.8881 6.37039C14.6314 6.02775 15.4592 5.83634 16.3333 5.83634C19.3881 5.83634 21.8963 8.17896 22.1586 11.1653C22.1869 11.487 22.4706 11.7249 22.7923 11.6967C23.1141 11.6684 23.352 11.3847 23.3237 11.063C23.0089 7.47801 19.9997 4.66675 16.3333 4.66675Z" fill="white"/>
<path fill-rule="evenodd" clip-rule="evenodd" d="M12.3607 6.42143C12.6618 6.43101 12.9064 6.66783 12.9257 6.96851C12.9847 7.88792 13.098 8.32171 13.2969 8.55072C13.457 8.73505 13.7945 8.90875 14.756 8.86331C15.0571 8.84908 15.3197 9.06601 15.3625 9.36436C15.4053 9.66271 15.2144 9.94474 14.9214 10.0158C14.1235 10.2093 13.6997 10.4 13.4389 10.6508C13.1957 10.8847 13.0214 11.2436 12.9214 11.9689C12.8816 12.2578 12.6348 12.4733 12.3431 12.4738C12.0514 12.4743 11.8039 12.2597 11.7631 11.9709C11.6531 11.1938 11.4885 10.81 11.2555 10.5743C11.0209 10.337 10.6239 10.1557 9.808 10.0249C9.51296 9.97756 9.30104 9.71544 9.31658 9.41703C9.33213 9.11862 9.57014 8.87993 9.8685 8.86354C10.6848 8.81868 11.0494 8.66361 11.2592 8.44903C11.4832 8.21983 11.65 7.80511 11.7621 6.9315C11.8004 6.63265 12.0595 6.41185 12.3607 6.42143ZM11.8078 9.51168C11.9069 9.5841 12.0002 9.6639 12.0873 9.75206C12.194 9.86 12.2875 9.97632 12.3697 10.1006C12.4468 9.99722 12.5326 9.89965 12.6281 9.80781C12.684 9.75406 12.7423 9.70323 12.8029 9.65506C12.6597 9.56271 12.5298 9.45114 12.4139 9.31763C12.3525 9.24694 12.2971 9.1721 12.247 9.09357C12.1998 9.15378 12.1494 9.21149 12.0955 9.26661C12.0058 9.35842 11.9098 9.43972 11.8078 9.51168Z" fill="white"/>
<path fill-rule="evenodd" clip-rule="evenodd" d="M19.2905 7.85418C19.5917 7.86376 19.8362 8.10057 19.8555 8.40126C19.9627 10.0718 20.1682 11.0371 20.657 11.6C21.107 12.1181 21.9321 12.4279 23.7326 12.3428C24.0337 12.3286 24.2963 12.5455 24.3391 12.8439C24.3819 13.1422 24.191 13.4243 23.898 13.4953C22.4179 13.8542 21.5277 14.2286 20.9483 14.7858C20.3866 15.326 20.0417 16.1139 19.8512 17.4952C19.8114 17.7842 19.5647 17.9996 19.2729 18.0001C18.9812 18.0006 18.7338 17.786 18.6929 17.4972C18.487 16.0416 18.1661 15.2031 17.6231 14.6539C17.0785 14.1029 16.2178 13.7492 14.691 13.5044C14.396 13.4571 14.1841 13.195 14.1996 12.8966C14.2152 12.5982 14.4532 12.3595 14.7515 12.3431C16.2849 12.2588 17.1134 11.9645 17.6317 11.4343C18.1643 10.8894 18.4842 9.98271 18.6919 8.36425C18.7302 8.0654 18.9894 7.8446 19.2905 7.85418ZM17.3066 13.0298C17.7487 13.2417 18.1302 13.5032 18.4549 13.8316C18.8143 14.1952 19.0861 14.6227 19.2962 15.117C19.5121 14.6689 19.7867 14.2802 20.1376 13.9428C20.4203 13.6709 20.7434 13.4415 21.1076 13.2425C20.5688 13.0568 20.1262 12.7724 19.774 12.3669C19.5018 12.0535 19.3003 11.684 19.1488 11.2671C18.9665 11.6414 18.7437 11.9698 18.4681 12.2518C18.1392 12.5883 17.7527 12.8413 17.3066 13.0298Z" fill="white"/>
<path d="M10.4854 11.6843C10.4854 11.3613 10.2236 11.0995 9.90059 11.0995C9.57761 11.0995 9.31579 11.3613 9.31579 11.6843V16.3627C9.31579 20.2383 12.4577 23.3802 16.3333 23.3802C20.209 23.3802 23.3509 20.2383 23.3509 16.3627V14.9884C23.3509 14.6654 23.0891 14.4036 22.7661 14.4036C22.4431 14.4036 22.1813 14.6654 22.1813 14.9884V16.3627C22.1813 19.5924 19.5631 22.2106 16.3333 22.2106C13.1036 22.2106 10.4854 19.5924 10.4854 16.3627V11.6843Z" fill="white"/>
<path d="M9.02339 15.5732C9.02339 15.2502 8.76157 14.9884 8.4386 14.9884C8.11562 14.9884 7.8538 15.2502 7.8538 15.5732V16.7247C7.8538 21.1638 11.3661 24.7825 15.7632 24.9529V26.8305H9.9883C9.66533 26.8305 9.40351 27.0923 9.40351 27.4153C9.40351 27.7383 9.66533 28.0001 9.9883 28.0001H22.7076C23.0306 28.0001 23.2924 27.7383 23.2924 27.4153C23.2924 27.0923 23.0306 26.8305 22.7076 26.8305H16.9327V24.9529C21.3298 24.7825 24.8421 21.1638 24.8421 16.7247V15.5732C24.8421 15.2502 24.5803 14.9884 24.2573 14.9884C23.9343 14.9884 23.6725 15.2502 23.6725 15.5732V16.7247C23.6725 20.6266 20.5098 23.7896 16.6084 23.7896H16.0875C12.1862 23.7896 9.02339 20.6266 9.02339 16.7247V15.5732Z" fill="white"/>
<path fill-rule="evenodd" clip-rule="evenodd" d="M14.8263 15.3018C14.807 15.0012 14.5624 14.7643 14.2613 14.7548C13.9601 14.7452 13.701 14.966 13.6627 15.2648C13.5669 16.0108 13.4264 16.3411 13.2553 16.5162C13.0984 16.6767 12.8133 16.8079 12.12 16.846C11.8216 16.8624 11.5836 17.1011 11.568 17.3995C11.5525 17.6979 11.7644 17.96 12.0595 18.0073C12.7535 18.1186 13.071 18.2703 13.2525 18.4539C13.4324 18.6358 13.5702 18.9417 13.6637 19.6025C13.7045 19.8913 13.952 20.1059 14.2437 20.1053C14.5354 20.1048 14.7821 19.8894 14.822 19.6004C14.9065 18.9876 15.0515 18.7023 15.2401 18.5209C15.4463 18.3226 15.7901 18.1634 16.4711 17.9982C16.7641 17.9272 16.955 17.6452 16.9122 17.3468C16.8694 17.0485 16.6068 16.8315 16.3057 16.8458C15.488 16.8844 15.2341 16.734 15.1237 16.6069C14.9745 16.4352 14.877 16.0925 14.8263 15.3018ZM14.0843 17.6317C14.033 17.5798 13.9795 17.5313 13.9238 17.4858C13.9821 17.4392 14.0381 17.3886 14.0916 17.3338C14.1133 17.3117 14.1343 17.2891 14.1547 17.266C14.1818 17.303 14.2104 17.339 14.2407 17.3738C14.3199 17.465 14.4061 17.5447 14.4989 17.6139C14.4753 17.6347 14.4521 17.656 14.4294 17.6779C14.3725 17.7326 14.3196 17.7894 14.2703 17.8485C14.214 17.7727 14.1522 17.7003 14.0843 17.6317Z" fill="white"/>
</g>
<defs>
<linearGradient id="paint0_linear_90_57" x1="0" y1="0" x2="21.8646" y2="37.8542" gradientUnits="userSpaceOnUse">
<stop offset="0.245" stop-color="#37A0C6"/>
<stop offset="0.759841" stop-color="#1B4D60"/>
</linearGradient>
<clipPath id="clip0_90_57">
<rect width="23.3333" height="23.3333" fill="white" transform="translate(4.66667 4.66675)"/>
</clipPath>
</defs>
</svg>
