<svg width="48" height="48" viewBox="0 0 48 48" fill="none" xmlns="http://www.w3.org/2000/svg">
<rect width="48" height="48" rx="7.5" fill="url(#paint0_linear_6_63)"/>
<path d="M24.5 7C22.9301 7 21.4382 7.34425 20.0977 7.96222C19.6577 8.16504 19.4655 8.68612 19.6683 9.12608C19.8711 9.56604 20.3922 9.75828 20.8321 9.55546C21.947 9.0415 23.1888 8.75439 24.5 8.75439C29.0821 8.75439 32.8445 12.2683 33.2379 16.7478C33.2803 17.2304 33.7059 17.5873 34.1885 17.5449C34.6711 17.5025 35.028 17.0769 34.9856 16.5943C34.5133 11.2169 29.9996 7 24.5 7Z" fill="white"/>
<path fill-rule="evenodd" clip-rule="evenodd" d="M18.541 9.63202C18.9928 9.64639 19.3596 10.0016 19.3886 10.4526C19.477 11.8318 19.647 12.4824 19.9454 12.826C20.1855 13.1025 20.6917 13.363 22.134 13.2948C22.5856 13.2735 22.9795 13.5989 23.0437 14.0464C23.108 14.4939 22.8215 14.917 22.3822 15.0235C21.1852 15.3138 20.5495 15.5999 20.1583 15.9761C19.7935 16.3269 19.5322 16.8653 19.3821 17.9532C19.3223 18.3866 18.9523 18.7098 18.5147 18.7105C18.0771 18.7113 17.7059 18.3895 17.6446 17.9562C17.4797 16.7906 17.2328 16.2149 16.8833 15.8613C16.5314 15.5053 15.9359 15.2334 14.712 15.0372C14.2694 14.9662 13.9516 14.573 13.9749 14.1254C13.9982 13.6778 14.3552 13.3198 14.8027 13.2952C16.0272 13.2279 16.5741 12.9953 16.8887 12.6734C17.2248 12.3296 17.4749 11.7075 17.6431 10.3971C17.7006 9.94885 18.0893 9.61766 18.541 9.63202ZM17.7117 14.2674C17.8604 14.376 18.0002 14.4957 18.1309 14.628C18.291 14.7899 18.4312 14.9644 18.5545 15.1507C18.6703 14.9957 18.799 14.8494 18.9422 14.7116C19.026 14.631 19.1134 14.5547 19.2043 14.4825C18.9896 14.3439 18.7947 14.1766 18.6208 13.9763C18.5287 13.8703 18.4456 13.758 18.3705 13.6402C18.2997 13.7305 18.2241 13.8171 18.1433 13.8998C18.0087 14.0375 17.8646 14.1595 17.7117 14.2674Z" fill="white"/>
<path fill-rule="evenodd" clip-rule="evenodd" d="M28.9358 11.7811C29.3875 11.7955 29.7544 12.1507 29.7833 12.6018C29.944 15.1076 30.2523 16.5556 30.9855 17.3998C31.6605 18.1771 32.8981 18.6418 35.5989 18.5141C36.0505 18.4928 36.4444 18.8182 36.5086 19.2657C36.5729 19.7132 36.2865 20.1363 35.8471 20.2428C33.6268 20.7812 32.2915 21.3428 31.4225 22.1786C30.5799 22.9889 30.0626 24.1707 29.7769 26.2426C29.7171 26.6761 29.347 26.9992 28.9094 27C28.4718 27.0008 28.1006 26.6789 28.0393 26.2457C27.7305 24.0623 27.2491 22.8046 26.4346 21.9807C25.6177 21.1543 24.3267 20.6237 22.0366 20.2565C21.594 20.1855 21.2761 19.7923 21.2994 19.3447C21.3227 18.8971 21.6798 18.5391 22.1273 18.5145C24.4273 18.3881 25.6701 17.9466 26.4475 17.1513C27.2464 16.334 27.7263 14.9739 28.0378 12.5462C28.0954 12.098 28.4841 11.7668 28.9358 11.7811ZM25.9598 19.5446C26.623 19.8624 27.1953 20.2546 27.6823 20.7473C28.2215 21.2927 28.6292 21.9339 28.9443 22.6754C29.2681 22.0032 29.6801 21.4202 30.2064 20.9141C30.6304 20.5062 31.1151 20.1621 31.6614 19.8636C30.8532 19.5852 30.1892 19.1585 29.6609 18.5502C29.2528 18.0802 28.9505 17.5259 28.7232 16.9005C28.4497 17.462 28.1156 17.9546 27.7021 18.3776C27.2088 18.8823 26.6291 19.2618 25.9598 19.5446Z" fill="white"/>
<path d="M15.7281 17.5263C15.7281 17.0419 15.3353 16.6491 14.8509 16.6491C14.3664 16.6491 13.9737 17.0419 13.9737 17.5263V24.5439C13.9737 30.3574 18.6865 35.0702 24.5 35.0702C30.3135 35.0702 35.0263 30.3574 35.0263 24.5439V22.4825C35.0263 21.998 34.6336 21.6053 34.1491 21.6053C33.6647 21.6053 33.2719 21.998 33.2719 22.4825V24.5439C33.2719 29.3885 29.3446 33.3158 24.5 33.3158C19.6554 33.3158 15.7281 29.3885 15.7281 24.5439V17.5263Z" fill="white"/>
<path d="M13.5351 23.3596C13.5351 22.8752 13.1424 22.4825 12.6579 22.4825C12.1734 22.4825 11.7807 22.8752 11.7807 23.3596V25.087C11.7807 31.7456 17.0492 37.1737 23.6447 37.4292V40.2456H14.9825C14.498 40.2456 14.1053 40.6383 14.1053 41.1228C14.1053 41.6073 14.498 42 14.9825 42H34.0614C34.5459 42 34.9386 41.6073 34.9386 41.1228C34.9386 40.6383 34.5459 40.2456 34.0614 40.2456H25.3991V37.4292C31.9947 37.1737 37.2632 31.7456 37.2632 25.087V23.3596C37.2632 22.8752 36.8704 22.4825 36.386 22.4825C35.9015 22.4825 35.5088 22.8752 35.5088 23.3596V25.087C35.5088 30.9397 30.7646 35.6842 24.9126 35.6842H24.1313C18.2792 35.6842 13.5351 30.9397 13.5351 25.087V23.3596Z" fill="white"/>
<path fill-rule="evenodd" clip-rule="evenodd" d="M22.2394 22.9526C22.2105 22.5016 21.8436 22.1464 21.3919 22.132C20.9402 22.1177 20.5515 22.4489 20.494 22.8971C20.3504 24.016 20.1396 24.5116 19.8829 24.7742C19.6476 25.0149 19.22 25.2117 18.1799 25.2689C17.7324 25.2935 17.3754 25.6515 17.3521 26.0991C17.3287 26.5467 17.6466 26.9399 18.0892 27.0109C19.1303 27.1778 19.6065 27.4054 19.8788 27.6807C20.1485 27.9536 20.3553 28.4124 20.4955 29.4036C20.5568 29.8368 20.928 30.1587 21.3656 30.1579C21.8031 30.1571 22.1732 29.834 22.233 29.4005C22.3598 28.4813 22.5773 28.0533 22.8601 27.7812C23.1694 27.4838 23.6852 27.2449 24.7067 26.9972C25.1461 26.8907 25.4325 26.4676 25.3683 26.0201C25.3041 25.5726 24.9102 25.2472 24.4586 25.2685C23.232 25.3265 22.8512 25.101 22.6856 24.9103C22.4618 24.6526 22.3155 24.1386 22.2394 22.9526ZM21.1264 26.4474C21.0496 26.3696 20.9693 26.2968 20.8857 26.2286C20.9731 26.1586 21.0571 26.0828 21.1375 26.0006C21.1699 25.9674 21.2014 25.9335 21.232 25.899C21.2726 25.9544 21.3156 26.0083 21.361 26.0606C21.4798 26.1974 21.6091 26.3169 21.7483 26.4208C21.7129 26.452 21.6782 26.4839 21.644 26.5167C21.5588 26.5987 21.4794 26.684 21.4054 26.7727C21.3209 26.6589 21.2282 26.5504 21.1264 26.4474Z" fill="white"/>
<defs>
<linearGradient id="paint0_linear_6_63" x1="0" y1="0" x2="32.7969" y2="56.7813" gradientUnits="userSpaceOnUse">
<stop offset="0.245" stop-color="#37A0C6"/>
<stop offset="0.759841" stop-color="#1B4D60"/>
</linearGradient>
</defs>
</svg>
