<svg width="36" height="36" viewBox="0 0 36 36" fill="none" xmlns="http://www.w3.org/2000/svg">
<g clip-path="url(#clip0_12_32)">
<path d="M18 0C16.3852 0 14.8507 0.354088 13.4719 0.989712C13.0194 1.19833 12.8216 1.73429 13.0302 2.18682C13.2389 2.63935 13.7748 2.83709 14.2274 2.62847C15.3741 2.09983 16.6513 1.80451 18 1.80451C22.713 1.80451 26.5829 5.41884 26.9876 10.0263C27.0312 10.5227 27.4689 10.8898 27.9653 10.8462C28.4617 10.8026 28.8288 10.3648 28.7852 9.86843C28.2994 4.33737 23.6567 0 18 0Z" fill="url(#paint0_linear_12_32)"/>
<path fill-rule="evenodd" clip-rule="evenodd" d="M11.8708 2.70722C12.3354 2.722 12.7128 3.08738 12.7425 3.55128C12.8335 4.9698 13.0084 5.63908 13.3152 5.99241C13.5622 6.27682 14.0829 6.5448 15.5664 6.47469C16.0309 6.45274 16.4361 6.78743 16.5021 7.24775C16.5682 7.70806 16.2736 8.14319 15.8217 8.25278C14.5905 8.55134 13.9366 8.84558 13.5343 9.23256C13.1591 9.59337 12.8902 10.1471 12.7359 11.2661C12.6744 11.712 12.2938 12.0443 11.8437 12.0451C11.3936 12.0459 11.0118 11.7149 10.9487 11.2692C10.7791 10.0703 10.5252 9.47817 10.1657 9.11452C9.8037 8.74835 9.19119 8.46866 7.93235 8.26682C7.47714 8.19383 7.15018 7.7894 7.17416 7.329C7.19814 6.8686 7.56536 6.50034 8.02568 6.47504C9.28511 6.40583 9.84764 6.16659 10.1713 5.83552C10.5169 5.4819 10.7742 4.84204 10.9472 3.49418C11.0064 3.0331 11.4062 2.69245 11.8708 2.70722ZM11.0177 7.47504C11.1707 7.58678 11.3145 7.70989 11.449 7.8459C11.6136 8.01245 11.7578 8.19191 11.8846 8.3836C12.0037 8.22416 12.1361 8.07362 12.2834 7.93192C12.3696 7.849 12.4595 7.77057 12.553 7.69624C12.3322 7.55377 12.1317 7.38163 11.9528 7.17564C11.8581 7.06657 11.7726 6.95112 11.6954 6.82995C11.6226 6.92285 11.5448 7.01189 11.4617 7.09692C11.3232 7.23857 11.1751 7.36402 11.0177 7.47504Z" fill="url(#paint1_linear_12_32)"/>
<path fill-rule="evenodd" clip-rule="evenodd" d="M22.5625 4.91775C23.0271 4.93253 23.4045 5.2979 23.4342 5.76181C23.5995 8.33925 23.9167 9.82858 24.6708 10.697C25.3651 11.4964 26.6381 11.9744 29.4161 11.8431C29.8806 11.8212 30.2857 12.1559 30.3518 12.6162C30.4178 13.0765 30.1232 13.5116 29.6713 13.6212C27.3876 14.175 26.0141 14.7526 25.1203 15.6122C24.2536 16.4457 23.7215 17.6613 23.4276 19.7924C23.3661 20.2383 22.9855 20.5706 22.5354 20.5714C22.0853 20.5722 21.7035 20.2412 21.6405 19.7955C21.3228 17.5498 20.8277 16.2561 19.9899 15.4087C19.1497 14.5587 17.8217 14.0129 15.4662 13.6352C15.011 13.5622 14.684 13.1578 14.708 12.6974C14.732 12.237 15.0992 11.8688 15.5595 11.8435C17.9253 11.7135 19.2035 11.2593 20.0032 10.4413C20.8249 9.60072 21.3185 8.20178 21.6389 5.70471C21.6981 5.24363 22.0979 4.90297 22.5625 4.91775ZM19.5016 12.903C20.1837 13.2299 20.7723 13.6333 21.2732 14.1401C21.8278 14.701 22.2472 15.3606 22.5713 16.1232C22.9043 15.4318 23.3281 14.8322 23.8694 14.3116C24.3056 13.8921 24.8041 13.5382 25.366 13.2312C24.5347 12.9447 23.8518 12.5059 23.3084 11.8802C22.8886 11.3968 22.5776 10.8267 22.3438 10.1834C22.0625 10.7609 21.7189 11.2676 21.2936 11.7027C20.7862 12.2218 20.1899 12.6121 19.5016 12.903Z" fill="url(#paint2_linear_12_32)"/>
<path d="M8.97745 10.8271C8.97745 10.3288 8.57349 9.92481 8.07519 9.92481C7.57689 9.92481 7.17294 10.3288 7.17294 10.8271V18.0451C7.17294 24.0247 12.0204 28.8722 18 28.8722C23.9796 28.8722 28.8271 24.0247 28.8271 18.0451V15.9248C28.8271 15.4265 28.4231 15.0226 27.9248 15.0226C27.4265 15.0226 27.0226 15.4265 27.0226 15.9248V18.0451C27.0226 23.0281 22.983 27.0677 18 27.0677C13.017 27.0677 8.97745 23.0281 8.97745 18.0451V10.8271Z" fill="url(#paint3_linear_12_32)"/>
<path d="M6.72181 16.8271C6.72181 16.3288 6.31786 15.9248 5.81955 15.9248C5.32125 15.9248 4.9173 16.3288 4.9173 16.8271V18.6038C4.9173 25.4526 10.3363 31.0358 17.1203 31.2986V34.1955H8.21053C7.71223 34.1955 7.30827 34.5994 7.30827 35.0977C7.30827 35.596 7.71223 36 8.21053 36H27.8346C28.3329 36 28.7368 35.596 28.7368 35.0977C28.7368 34.5994 28.3329 34.1955 27.8346 34.1955H18.9248V31.2986C25.7088 31.0358 31.1278 25.4526 31.1278 18.6038V16.8271C31.1278 16.3288 30.7239 15.9248 30.2256 15.9248C29.7273 15.9248 29.3233 16.3288 29.3233 16.8271V18.6038C29.3233 24.6237 24.4436 29.5038 18.4244 29.5038H17.6207C11.6015 29.5038 6.72181 24.6237 6.72181 18.6038V16.8271Z" fill="url(#paint4_linear_12_32)"/>
<path fill-rule="evenodd" clip-rule="evenodd" d="M15.6748 16.4084C15.6451 15.9445 15.2677 15.5791 14.8031 15.5644C14.3385 15.5496 13.9387 15.8902 13.8795 16.3513C13.7318 17.5022 13.5151 18.0119 13.251 18.2821C13.009 18.5296 12.5691 18.732 11.4994 18.7908C11.039 18.8161 10.6718 19.1844 10.6478 19.6448C10.6239 20.1052 10.9508 20.5096 11.406 20.5826C12.4769 20.7543 12.9667 20.9884 13.2467 21.2716C13.5242 21.5523 13.7369 22.0242 13.8811 23.0437C13.9441 23.4893 14.3259 23.8203 14.776 23.8195C15.2261 23.8188 15.6067 23.4864 15.6682 23.0406C15.7986 22.0951 16.0224 21.6548 16.3133 21.375C16.6314 21.069 17.1619 20.8234 18.2126 20.5686C18.6646 20.459 18.9592 20.0239 18.8931 19.5635C18.827 19.1032 18.4219 18.7685 17.9574 18.7905C16.6957 18.8501 16.3041 18.6181 16.1338 18.422C15.9036 18.157 15.7531 17.6283 15.6748 16.4084ZM14.53 20.003C14.451 19.923 14.3684 19.8482 14.2824 19.778C14.3724 19.706 14.4587 19.628 14.5414 19.5435C14.5748 19.5093 14.6072 19.4745 14.6386 19.4389C14.6804 19.496 14.7246 19.5514 14.7713 19.6052C14.8935 19.7459 15.0265 19.8688 15.1697 19.9757C15.1333 20.0077 15.0975 20.0406 15.0625 20.0743C14.9748 20.1587 14.8931 20.2464 14.817 20.3376C14.7301 20.2206 14.6348 20.1089 14.53 20.003Z" fill="url(#paint5_linear_12_32)"/>
</g>
<defs>
<linearGradient id="paint0_linear_12_32" x1="4.9173" y1="0" x2="32.5697" y2="34.8561" gradientUnits="userSpaceOnUse">
<stop offset="0.245" stop-color="#37A0C6"/>
<stop offset="0.759841" stop-color="#1B4D60"/>
</linearGradient>
<linearGradient id="paint1_linear_12_32" x1="4.9173" y1="0" x2="32.5697" y2="34.8561" gradientUnits="userSpaceOnUse">
<stop offset="0.245" stop-color="#37A0C6"/>
<stop offset="0.759841" stop-color="#1B4D60"/>
</linearGradient>
<linearGradient id="paint2_linear_12_32" x1="4.9173" y1="0" x2="32.5697" y2="34.8561" gradientUnits="userSpaceOnUse">
<stop offset="0.245" stop-color="#37A0C6"/>
<stop offset="0.759841" stop-color="#1B4D60"/>
</linearGradient>
<linearGradient id="paint3_linear_12_32" x1="4.9173" y1="0" x2="32.5697" y2="34.8561" gradientUnits="userSpaceOnUse">
<stop offset="0.245" stop-color="#37A0C6"/>
<stop offset="0.759841" stop-color="#1B4D60"/>
</linearGradient>
<linearGradient id="paint4_linear_12_32" x1="4.9173" y1="0" x2="32.5697" y2="34.8561" gradientUnits="userSpaceOnUse">
<stop offset="0.245" stop-color="#37A0C6"/>
<stop offset="0.759841" stop-color="#1B4D60"/>
</linearGradient>
<linearGradient id="paint5_linear_12_32" x1="4.9173" y1="0" x2="32.5697" y2="34.8561" gradientUnits="userSpaceOnUse">
<stop offset="0.245" stop-color="#37A0C6"/>
<stop offset="0.759841" stop-color="#1B4D60"/>
</linearGradient>
<clipPath id="clip0_12_32">
<rect width="36" height="36" fill="white"/>
</clipPath>
</defs>
</svg>
