<svg width="450" height="295" viewBox="0 0 450 295" fill="none" xmlns="http://www.w3.org/2000/svg">
<g clip-path="url(#clip0_33_148)">
<path d="M415.191 142.307H50.2908C45.3997 142.307 41.4205 138.328 41.4205 133.436V8.8703C41.4205 3.97919 45.3997 0 50.2908 0H415.191C420.082 0 424.062 3.97919 424.062 8.8703V133.436C424.062 138.328 420.082 142.307 415.191 142.307ZM50.2908 1.05754C45.983 1.05754 42.4781 4.56244 42.4781 8.8703V133.436C42.4781 137.744 45.983 141.249 50.2908 141.249H415.191C419.499 141.249 423.004 137.744 423.004 133.436V8.8703C423.004 4.56244 419.499 1.05754 415.191 1.05754H50.2908Z" fill="#3F3D56"/>
<path d="M450 291.117H0V292.007H450V291.117Z" fill="#E6E6E6"/>
<path d="M450 245.643H0V246.533H450V245.643Z" fill="#E6E6E6"/>
<path d="M205.078 146.888C205.401 150.949 207.758 154.074 210.342 153.868C212.927 153.662 214.759 150.203 214.435 146.141C214.328 144.516 213.834 142.941 212.993 141.547L211.407 124.358L203.356 125.274L205.775 142.122C205.165 143.632 204.926 145.266 205.078 146.888Z" fill="#FFB6B6"/>
<path d="M195.461 66.6953C195.461 66.6953 202.986 62.7115 206.802 68.6647C210.618 74.6178 213.251 139.002 213.251 139.002L202.675 140.131L200.67 94.7615L195.461 66.6953Z" fill="#E6E6E6"/>
<path d="M179.841 242.284L185.968 242.283L188.883 218.65L179.84 218.651L179.841 242.284Z" fill="#FFB6B6"/>
<path d="M200.833 242.145C201.024 242.466 201.125 243.503 201.125 243.877C201.125 245.025 200.194 245.956 199.045 245.956H180.071C179.287 245.956 178.652 245.321 178.652 244.538V243.748C178.652 243.748 177.713 241.374 179.646 238.447C179.646 238.447 182.048 240.739 185.637 237.149L186.695 235.232L194.356 240.835L198.603 241.358C199.532 241.472 200.356 241.34 200.833 242.145Z" fill="#2F2E41"/>
<path d="M215.298 241.27L221.234 239.752L218.209 216.133L209.447 218.372L215.298 241.27Z" fill="#FFB6B6"/>
<path d="M235.602 235.939C235.867 236.203 236.221 237.183 236.313 237.545C236.597 238.658 235.926 239.79 234.813 240.075L216.429 244.771C215.67 244.965 214.897 244.507 214.703 243.748L214.508 242.982C214.508 242.982 213.01 240.914 214.159 237.6C214.159 237.6 217.053 239.226 219.642 234.86L220.193 232.741L229.002 236.273L233.246 235.729C234.175 235.61 234.94 235.278 235.602 235.939Z" fill="#2F2E41"/>
<path d="M174.772 61.6148L174.482 59.5067L177.935 51.0739L187.422 50.0198L189.47 62.0924L174.772 61.6148Z" fill="#FFB6B6"/>
<path opacity="0.1" d="M174.772 61.6148L174.482 59.5067L177.935 51.0739L187.422 50.0198L189.47 62.0924L174.772 61.6148Z" fill="black"/>
<path d="M163.704 121.171L159.488 132.766L162.65 139.091L178.462 230.797H188.974L186.895 149.632L211.139 230.797H221.543L213.176 175.984L206.922 125.388L203.129 123.044L184.786 112.739L163.704 121.171Z" fill="#2F2E41"/>
<path d="M190.584 129.077L184.259 130.131L175.827 110.103H194.8L190.584 129.077Z" fill="#E6E6E6"/>
<path d="M203.233 123.807L190.584 129.077L186.367 119.59L184.259 130.131L162.123 123.005L165.286 110.103L162.123 67.9394L173.286 60.4974L174.772 59.5066L188.476 60.5607L189.677 61.2142L197.963 65.8312L200.071 100.616L203.233 123.807Z" fill="#2F2E41"/>
<path d="M189.677 61.2142L183.732 86.3861L173.286 60.4974L174.772 59.5066L188.476 60.5607L189.677 61.2142Z" fill="#E6E6E6"/>
<path d="M179.516 59.5066L177.408 63.1374L179.516 64.3476L178.462 86.4516L182.678 92.1836L186.895 83.7118L183.732 64.3476L184.786 59.5066H179.516Z" fill="#2F2E41"/>
<path d="M182.678 57.3983C188.209 57.3983 192.692 52.915 192.692 47.3844C192.692 41.8539 188.209 37.3705 182.678 37.3705C177.148 37.3705 172.664 41.8539 172.664 47.3844C172.664 52.915 177.148 57.3983 182.678 57.3983Z" fill="#FFB6B6"/>
<path d="M176.279 48.2629L178.442 49.2072L179.387 43.5414C179.387 43.5414 183.164 41.6528 185.997 42.5971C188.83 43.5414 193.551 42.5971 193.551 42.5971C193.551 42.5971 193.551 33.1542 186.941 33.1542C180.331 33.1542 173.721 34.0985 173.721 36.9314C173.721 39.7642 170.888 42.5971 170.888 42.5971C170.888 42.5971 167.111 48.2629 170.888 52.0401C174.665 55.8173 176.554 55.8173 176.554 55.8173L176.279 48.2629Z" fill="#2F2E41"/>
<path d="M156.848 146.592C156.738 150.664 158.75 154.021 161.342 154.091C163.934 154.16 166.123 150.916 166.232 146.842C166.298 145.215 165.974 143.596 165.286 142.121L165.533 124.861L157.431 124.917L158.047 141.927C157.281 143.364 156.869 144.963 156.848 146.592Z" fill="#FFB6B6"/>
<path d="M166.872 65.8114C166.872 65.8114 160.02 63.7032 156.858 70.0278C153.696 76.3524 157.912 140.652 157.912 140.652H168.548L165.725 95.3262L166.872 65.8114Z" fill="#E6E6E6"/>
<path d="M429.708 185.602L404.157 177.78C403.591 177.607 402.998 177.544 402.409 177.594L272.913 188.615C271.067 188.772 270.603 191.263 272.268 192.074L276.416 194.095H276.306V290.834H280.215V195.946L293.215 202.279C294.209 202.763 295.319 202.961 296.42 202.85L297.803 202.71V290.834H301.712V202.316L401.871 192.198V290.834H405.78V191.804L422.392 190.126V290.834H426.3V189.731L429.331 189.425C431.458 189.21 431.752 186.228 429.708 185.602Z" fill="#3F3D56"/>
<path d="M310.507 188.232C312.949 188.232 349.104 183.835 349.104 183.835L354.479 191.164L316.858 198.492L310.507 188.232Z" fill="white"/>
<path d="M350.187 287.077L343.906 287.066L340.959 262.832L350.23 262.849L350.187 287.077Z" fill="#A0616A"/>
<path d="M328.666 286.898C328.47 287.227 328.365 288.29 328.365 288.673C328.362 289.85 329.315 290.807 330.493 290.809L349.946 290.842C350.749 290.843 351.401 290.193 351.403 289.39L351.404 288.58C351.404 288.58 352.371 286.148 350.394 283.144C350.394 283.144 347.928 285.489 344.255 281.803L343.173 279.836L335.309 285.566L330.955 286.095C330.002 286.21 329.158 286.074 328.666 286.898Z" fill="#2F2E41"/>
<path d="M383.9 275.808L378.944 279.546L362.167 262.209L369.481 256.692L383.9 275.808Z" fill="#A0616A"/>
<path d="M366.837 288.504C366.879 288.88 367.43 289.781 367.658 290.083C368.359 291.012 369.68 291.197 370.609 290.496L385.956 278.918C386.59 278.44 386.716 277.539 386.238 276.905L385.756 276.266C385.756 276.266 385.066 273.773 381.718 272.585C381.718 272.585 381.173 275.904 376.08 275.191L374.054 274.286L371.277 283.493L368.161 286.506C367.479 287.166 366.732 287.561 366.837 288.504Z" fill="#2F2E41"/>
<path d="M370.773 150.561C370.773 156.354 366.077 161.05 360.284 161.05C354.492 161.05 349.796 156.354 349.796 150.561C349.796 144.769 354.492 140.073 360.284 140.073C366.077 140.073 370.773 144.769 370.773 150.561Z" fill="#A0616A"/>
<path d="M369.784 211.035C369.784 211.035 331.167 208.849 328.982 213.221C326.796 217.593 340.799 277.643 340.799 277.643L353.292 275.024L347.197 232.894C347.197 232.894 379.422 241.428 383.794 231.227C388.165 221.027 386.907 217.228 386.907 217.228L369.784 211.035Z" fill="#2F2E41"/>
<path d="M379.678 203.697C379.678 203.697 341.859 211.804 340.907 216.599C339.956 221.393 369.345 275.599 369.345 275.599L380.7 269.769L363.678 230.752C363.678 230.752 397.013 230.458 398.53 219.464C400.048 208.47 397.829 205.14 397.829 205.14L379.678 203.697Z" fill="#2F2E41"/>
<path d="M383.992 162.582H365.823L353.39 182.983C353.39 182.983 350.476 196.167 353.39 197.59C356.305 199.013 356.305 214.314 356.305 214.314L386.907 217.228C386.907 217.228 391.279 171.325 389.821 166.953C388.364 162.582 383.992 162.582 383.992 162.582Z" fill="#37A0C6"/>
<path d="M355.212 176.061L353.39 197.59L332.902 188.894L328.012 186.435C327.054 185.186 325.811 184.185 324.387 183.515C320.846 181.789 317.086 182.216 315.988 184.469C314.89 186.722 316.87 189.947 320.41 191.672C321.816 192.381 323.371 192.743 324.945 192.728L339.253 200.854L339.269 200.822L339.333 200.935L361.769 210.306L366.932 182.044L355.212 176.061Z" fill="#A0616A"/>
<path d="M353.026 152.017C353.026 152.017 342.097 153.474 346.468 144.002C346.468 144.002 345.802 138.867 349.05 138.52C352.297 138.173 356.669 132.344 356.669 132.344C356.669 132.344 366.692 127.243 371.881 132.344C377.071 137.444 392.372 167.318 392.372 167.318L382.171 178.247C382.171 178.247 376.038 162.126 368.904 163.993C361.77 165.86 355.212 171.428 355.212 171.428C355.212 171.428 347.972 167.805 351.227 164.647C354.483 161.489 353.026 152.017 353.026 152.017Z" fill="#2F2E41"/>
<path d="M367.598 168.046C367.598 168.046 362.498 161.489 358.855 166.589C355.212 171.689 352.297 178.247 352.297 178.247L366.87 183.347L367.598 168.046Z" fill="#37A0C6"/>
<path d="M422.928 289.384L405.997 235.571L406 235.571H406.039L405.97 235.483L405.969 235.481L404.763 231.648L404.764 231.647C406.601 230.064 407.851 227.802 408.101 225.198L400.362 182.633C400.894 177.044 396.609 172.158 390.995 171.958L373.534 171.914C368.57 171.738 364.27 175.324 363.547 180.239L363.161 182.848L357.811 219.242C357.616 220.552 357.694 221.842 358.002 223.048L354.152 223.552L352.984 223.708L348.367 224.309L348.352 224.314L347.776 224.387H347.15V240.022H347.189V289.994C347.189 290.316 347.453 290.58 347.776 290.58C348.103 290.58 348.367 290.316 348.367 289.994V240.022H355.217L362.052 289.935C362.096 290.228 362.345 290.443 362.638 290.443C362.663 290.443 362.692 290.443 362.716 290.438C363.039 290.395 363.264 290.096 363.22 289.774L356.409 240.022H389.276C392.539 240.022 395.563 238.986 398.025 237.213L411.057 289.844C411.124 290.11 411.364 290.287 411.627 290.287C411.675 290.287 411.723 290.281 411.772 290.269C412.087 290.189 412.277 289.868 412.197 289.553L399.04 236.414C399.215 236.268 399.39 236.112 399.555 235.952L404.787 235.644L421.805 289.737C421.884 289.988 422.116 290.149 422.366 290.149C422.425 290.149 422.484 290.14 422.543 290.122C422.853 290.024 423.025 289.694 422.928 289.384ZM403.645 232.483C403.689 232.459 403.728 232.429 403.767 232.405L403.893 232.804L403.645 232.483Z" fill="#E6E6E6"/>
<path d="M90.7183 198.169L102.113 190.923L106.745 193.717L90.7183 212.133V198.169Z" fill="#FFB6B6"/>
<path d="M75.1366 170.122C75.1366 170.122 67.5683 171.903 71.1299 182.142C74.6914 192.382 86.2664 213.751 89.8279 212.415C93.3894 211.08 93.8346 197.724 93.8346 197.724C93.8346 197.724 93.3894 198.169 91.6087 196.388C89.8279 194.608 89.8279 195.421 89.8279 193.456C89.8279 191.491 88.3714 190.035 88.3714 190.035L86.7116 186.594C86.7116 186.594 86.7116 170.567 80.0337 169.677C73.3558 168.786 75.1366 170.122 75.1366 170.122Z" fill="#E6E6E6"/>
<path d="M110.496 193.238C113.451 190.283 114.367 186.407 112.542 184.581C110.716 182.756 106.841 183.672 103.885 186.628C100.929 189.583 100.013 193.459 101.839 195.285C103.664 197.11 107.54 196.194 110.496 193.238Z" fill="#FFB6B6"/>
<path d="M45.6581 229.11L53.4332 241.979L98.743 239.298L86.6782 223.748L45.6581 229.11Z" fill="#E6E6E6"/>
<path d="M59.1968 289.3C58.9329 289.3 58.703 289.105 58.6662 288.836L45.1269 189.953C45.0867 189.659 45.292 189.389 45.5854 189.349C45.8786 189.306 46.1491 189.514 46.1894 189.807L59.7287 288.691C59.7689 288.984 59.5636 289.255 59.2703 289.295C59.2455 289.298 59.221 289.3 59.1968 289.3Z" fill="#E6E6E6"/>
<path d="M45.6582 289.425C45.362 289.425 45.1219 289.185 45.1219 288.889V189.899C45.1219 189.603 45.362 189.363 45.6582 189.363C45.9543 189.363 46.1944 189.603 46.1944 189.899V288.889C46.1944 289.185 45.9543 289.425 45.6582 289.425Z" fill="#E6E6E6"/>
<path d="M113.623 289.032C113.395 289.032 113.183 288.885 113.111 288.657L81.0728 186.824C80.9839 186.541 81.1409 186.24 81.4234 186.151C81.7057 186.063 82.007 186.22 82.0957 186.502L114.134 288.335C114.223 288.617 114.066 288.918 113.784 289.007C113.73 289.024 113.676 289.032 113.623 289.032Z" fill="#E6E6E6"/>
<path d="M103.837 289.157C103.597 289.157 103.379 288.996 103.317 288.753L81.0646 198.879C80.9916 198.592 81.1651 198.3 81.4521 198.227C81.7399 198.155 82.0309 198.328 82.104 198.615L104.357 288.489C104.43 288.776 104.256 289.068 103.969 289.141C103.925 289.152 103.88 289.157 103.837 289.157Z" fill="#E6E6E6"/>
<path d="M45.6581 191.476L82.7907 190.905L89.6274 229.914H46.1943L45.6581 191.476Z" fill="#E6E6E6"/>
<path d="M102.722 248.837L93.3636 265.312L104.229 267.704L108.759 255.986L102.722 248.837Z" fill="#FFB6B6"/>
<path d="M96.7248 262.202C96.7248 262.202 96.3611 259.515 94.2233 260.368C92.0855 261.22 85.9157 264.389 85.9157 264.389C85.9157 264.389 102.008 290.537 105.062 289.319C108.116 288.101 104.46 280.71 104.46 280.71L105.267 267.644L96.7248 262.202Z" fill="#2F2E41"/>
<path d="M61.3356 216.867C61.3356 216.867 57.9967 232.226 68.2361 237.569C78.4755 242.911 113.423 229.778 113.423 229.778L97.3961 253.792L108.526 258.27C108.526 258.27 133.902 224.881 132.121 219.538C130.34 214.196 118.32 213.751 118.32 213.751L91.1635 215.086L84.0404 212.86L61.3356 216.867Z" fill="#2F2E41"/>
<path d="M88.8773 256.149L74.1655 268.09L83.4157 274.272L91.8991 265.005L88.8773 256.149Z" fill="#FFB6B6"/>
<path d="M78.4282 266.416C78.4282 266.416 79.0671 263.781 76.7656 263.797C74.4641 263.813 67.5643 264.52 67.5643 264.52C67.5643 264.52 73.0386 294.731 76.3264 294.707C79.6143 294.684 78.8987 286.469 78.8987 286.469L84.4044 274.593L78.4282 266.416Z" fill="#2F2E41"/>
<path d="M61.9616 211.311C61.9616 211.311 53.2626 224.403 60.8561 233.105C68.4496 241.807 105.78 242.291 105.78 242.291L82.1137 258.826L90.851 267.048C90.851 267.048 126.637 245.181 126.922 239.557C127.208 233.933 116.173 229.144 116.173 229.144L90.3926 220.507L84.5678 215.841L61.9616 211.311Z" fill="#2F2E41"/>
<path d="M84.3086 180.989C84.3086 180.989 75.85 177.873 71.8432 177.873C71.4604 177.873 71.082 177.917 70.7036 177.997C68.1393 178.541 65.7797 180.744 64.649 181.946C64.2082 182.418 63.9545 182.734 63.9545 182.734C63.9545 182.734 63.9812 182.427 64.0346 181.888C64.2972 179.057 65.2678 169.766 67.0085 163.818C67.6317 161.695 68.3485 159.998 69.1721 159.175C71.0909 157.252 71.9768 154.945 72.3864 153.227C72.7336 151.753 72.7336 150.716 72.7336 150.716L69.4882 149.318L68.8872 145.392C68.7803 145.855 68.2862 146.758 66.6256 148.49C66.4831 148.637 66.3273 148.762 66.1626 148.869C63.7675 150.373 58.8837 147.756 56.2526 146.108C57.3478 142.302 59.3334 138.821 62.9394 138.251C71.398 136.915 71.3981 132.018 76.7404 137.36C77.1811 137.801 77.6263 138.224 78.0715 138.634C79.781 141.901 80.4043 146.282 80.6269 149.327C80.7872 151.46 80.7471 152.942 80.7471 152.942C80.7471 152.942 82.973 166.298 86.5346 168.969C90.0961 171.64 84.3086 180.989 84.3086 180.989Z" fill="#2F2E41"/>
<path d="M67.8365 159.62L61.8212 168.443L75.4048 172.085V159.62H67.8365Z" fill="#FFB6B6"/>
<path opacity="0.1" d="M67.8365 159.62L61.8212 168.443L75.4048 172.085V159.62H67.8365Z" fill="black"/>
<path d="M76.2496 168.119L63.339 162.776C63.339 162.776 45.9765 170.345 47.3121 185.036C48.6477 199.727 61.1131 225.103 61.1131 225.103L86.0438 214.419L83.3726 185.926L76.2496 168.119Z" fill="#E6E6E6"/>
<path d="M70.7141 163.559C77.0047 163.559 82.1043 158.46 82.1043 152.169C82.1043 145.878 77.0047 140.779 70.7141 140.779C64.4234 140.779 59.3239 145.878 59.3239 152.169C59.3239 158.46 64.4234 163.559 70.7141 163.559Z" fill="#FFB6B6"/>
<path d="M86.0894 148.045C83.8634 150.271 82.0826 152.497 82.0826 152.497L81.1922 148.935C81.1922 148.935 80.9874 149.087 80.6268 149.327C79.2156 150.289 75.427 152.706 72.3863 153.227C71.033 153.459 69.831 153.312 69.0474 152.497C67.3869 150.765 66.8927 149.861 66.7859 149.398L66.1848 153.325L62.9394 154.723C62.9394 154.723 62.9394 159.611 66.5009 163.182C66.6746 163.355 66.8437 163.569 67.0084 163.818C68.7091 166.382 69.9289 172.66 70.7035 177.997C71.3891 182.743 71.7186 186.741 71.7186 186.741C71.7186 186.741 68.3485 182.521 64.6489 181.946C64.4441 181.915 64.2393 181.893 64.0346 181.888C63.9678 181.88 63.8966 181.88 63.8298 181.88C59.8231 181.88 51.3644 184.996 51.3644 184.996C51.3644 184.996 45.5769 175.647 49.1385 172.976C52.7 170.305 54.926 156.949 54.926 156.949C54.926 156.949 54.779 151.233 56.2526 146.108C57.3478 142.302 59.3334 138.821 62.9394 138.251C71.398 136.915 71.398 132.018 76.7403 137.36C77.1811 137.801 77.6263 138.224 78.0715 138.634C83.0487 143.21 88.1328 146.002 86.0894 148.045Z" fill="#2F2E41"/>
<path d="M36.1328 207.806H31.9026V291.351H36.1328V207.806Z" fill="#3F3D56"/>
<path d="M138.714 207.806H134.484V291.351H138.714V207.806Z" fill="#3F3D56"/>
<path d="M111.747 172.379H83.722V200.403H111.747V172.379Z" fill="#37A0C6"/>
<path d="M67.5684 202.176L78.9628 194.93L83.5953 197.724L67.5684 216.14V202.176Z" fill="#FFB6B6"/>
<path d="M51.9867 174.129C51.9867 174.129 44.4184 175.91 47.9799 186.149C51.5415 196.388 63.1165 217.758 66.678 216.422C70.2395 215.086 70.6847 201.731 70.6847 201.731C70.6847 201.731 70.2395 202.176 68.4588 200.395C66.678 198.614 66.678 199.428 66.678 197.463C66.678 195.498 65.2215 194.042 65.2215 194.042L63.5617 190.601C63.5617 190.601 63.5617 174.574 56.8838 173.684C50.2059 172.793 51.9867 174.129 51.9867 174.129Z" fill="#E6E6E6"/>
<path d="M87.3458 197.245C90.3014 194.29 91.2175 190.414 89.392 188.588C87.5665 186.763 83.6906 187.679 80.7351 190.634C77.7795 193.59 76.8633 197.466 78.6889 199.291C80.5144 201.117 84.3902 200.201 87.3458 197.245Z" fill="#FFB6B6"/>
<path d="M147.174 204.633H19.2122V214.151H147.174V204.633Z" fill="#3F3D56"/>
<path d="M277.183 128.491H258.284C256.786 128.491 255.572 129.705 255.572 131.203V138.997C255.572 140.495 256.786 141.71 258.284 141.71H277.183C278.681 141.71 279.895 140.495 279.895 138.997V131.203C279.895 129.705 278.681 128.491 277.183 128.491Z" fill="#3F3D56"/>
<path d="M316.84 136.285H297.942C296.444 136.285 295.229 137.499 295.229 138.997V138.997C295.229 140.496 296.444 141.71 297.942 141.71H316.84C318.338 141.71 319.553 140.496 319.553 138.997V138.997C319.553 137.499 318.338 136.285 316.84 136.285Z" fill="#37A0C6"/>
</g>
<defs>
<clipPath id="clip0_33_148">
<rect width="450" height="294.707" fill="white"/>
</clipPath>
</defs>
</svg>
