<svg width="30" height="30" viewBox="0 0 30 30" fill="none" xmlns="http://www.w3.org/2000/svg">
<path d="M4.99995 1.11115C3.46579 1.11115 2.22217 2.3548 2.22217 3.88892V26.1111C2.22217 27.6453 3.46579 28.8889 4.99995 28.8889H9.99995C11.5341 28.8889 12.7777 27.6453 12.7777 26.1111V3.88892C12.7777 2.3548 11.5341 1.11115 9.99995 1.11115H4.99995Z" fill="#FF5555"/>
<path d="M19.7222 1.11115C18.188 1.11115 16.9444 2.3548 16.9444 3.88892V26.1111C16.9444 27.6453 18.188 28.8889 19.7222 28.8889H24.7222C26.2563 28.8889 27.4999 27.6453 27.4999 26.1111V3.88892C27.4999 2.3548 26.2563 1.11115 24.7222 1.11115H19.7222Z" fill="#FF5555"/>
</svg>
